# 3ds Max Wavefront OBJ Exporter v0.97b - (c)2007 guruware
# File Created: 28.10.2020 01:26:57

mtllib Cajita.mtl

#
# object vsn_mesh_0_giftBox_new
#

v  15.4808 22.1151 -12.6372
v  -15.4808 21.7994 -12.6374
v  -15.4808 22.1151 -12.6372
v  15.4808 21.7994 -12.6374
v  15.4808 34.6894 -12.6372
v  -15.4808 34.6894 -12.6372
v  15.4808 22.1151 12.6373
v  -15.4808 22.1151 12.6373
v  15.4808 21.7994 12.6374
v  -15.4808 34.6894 12.6373
v  15.4808 34.6894 12.6373
v  -15.4808 21.7994 12.6374
v  -15.4808 34.9101 12.3215
v  15.4808 22.2462 12.3215
v  15.3496 22.1152 12.3212
v  15.4808 34.9101 12.3215
v  -15.3496 22.1152 12.3212
v  -15.4808 22.2462 12.3215
v  15.3496 6.8017 -12.3212
v  -15.3496 6.8017 12.3212
v  15.4808 6.8017 -12.1905
v  -15.4808 6.8017 12.1905
v  -15.4808 6.8017 -12.1905
v  -15.3496 6.8017 -12.3212
v  15.3496 6.8017 12.3212
v  15.4808 6.8017 12.1905
v  15.4808 34.6890 12.3212
v  15.4808 22.2458 -12.3212
v  15.4808 22.1152 -12.1905
v  15.4808 34.6890 -12.3212
v  15.4808 22.1152 12.1905
v  15.4808 22.2458 12.3212
v  -15.4808 34.6891 -12.3212
v  -15.4808 22.2460 12.3212
v  -15.4808 22.1152 12.1905
v  -15.4808 34.6891 12.3212
v  -15.4808 22.1152 -12.1905
v  -15.4808 22.2460 -12.3212
v  15.4808 34.9101 -12.3214
v  -15.4808 22.2462 -12.3214
v  -15.3496 22.1152 -12.3212
v  -15.4808 34.9101 -12.3214
v  15.3496 22.1152 -12.3212
v  15.4808 22.2462 -12.3214
v  -15.7965 -0.0000 12.3212
v  -15.7965 -0.0000 -12.3212
v  -15.4808 -0.0000 -12.6374
v  15.4808 -0.0000 -12.6374
v  -15.4808 -0.0000 12.6374
v  15.7965 -0.0000 -12.3212
v  15.4808 -0.0000 12.6374
v  15.7965 -0.0000 12.3212
v  15.7965 21.7994 12.3212
v  15.7965 21.7994 -12.3212
v  -15.7965 21.7994 -12.3212
v  -15.7965 21.7994 12.3212
v  15.7965 22.1152 12.3212
v  15.7965 22.1152 -12.3212
v  15.7965 34.6890 12.3212
v  15.7965 34.6890 -12.3212
v  -15.7965 22.1153 -12.3212
v  -15.7965 22.1153 12.3212
v  -15.7965 34.6891 -12.3212
v  -15.7965 34.6891 12.3212
# 64 vertices

vn 0.0000 0.0007 -1.0000
vn 0.0000 0.0000 -1.0000
vn 0.0000 0.0005 1.0000
vn 0.0000 -0.0000 1.0000
vn 0.0007 0.0018 -1.0000
vn -0.0025 0.0000 -1.0000
vn 0.0000 1.0000 -0.0000
vn 0.0000 1.0000 0.0000
vn -1.0000 0.0000 -0.0000
vn -1.0000 0.0000 0.0000
vn 1.0000 0.0000 0.0000
vn 1.0000 0.0000 -0.0000
vn -0.0006 0.0014 1.0000
vn 0.0000 0.0000 1.0000
vn 0.0020 -0.0000 1.0000
vn 0.0000 -1.0000 -0.0000
vn 0.6786 -0.6784 -0.2817
vn -0.7076 0.0000 0.7066
vn 0.7076 0.0000 0.7066
vn -0.7076 0.0000 -0.7066
vn 0.7076 0.0000 -0.7066
vn -0.4993 0.7067 0.5012
vn -0.5000 0.7076 0.4992
vn -0.5004 0.7071 -0.4996
vn -0.4984 0.7080 -0.5003
vn 0.4984 0.7080 0.5003
vn 0.5004 0.7071 0.4996
vn 0.4993 0.7067 -0.5012
vn 0.5000 0.7076 -0.4992
vn -0.7058 -0.0000 0.7084
vn -0.7058 0.0000 0.7084
vn 0.7058 0.0000 0.7084
vn 0.7058 -0.0000 0.7084
vn 0.7058 0.0000 -0.7084
vn -0.7058 0.0000 -0.7084
vn 0.0000 0.8196 0.5730
vn 1.0000 -0.0000 -0.0000
vn -1.0000 -0.0000 -0.0000
vn 0.6785 -0.6784 0.2817
vn 0.0000 0.0000 -0.0000
vn 0.0000 0.8196 -0.5730
vn -0.6786 -0.6784 -0.2817
vn -0.9237 -0.0002 -0.3832
vn 0.9237 -0.0002 -0.3832
vn -0.2808 -0.6786 -0.6787
vn -0.2808 -0.6786 0.6787
vn -0.3823 0.0000 0.9240
vn -0.3823 0.0000 -0.9240
vn 0.2807 -0.6783 -0.6790
vn 0.3823 0.0000 -0.9240
vn 0.3823 0.0000 0.9240
vn 0.2807 -0.6783 0.6790
vn 0.9236 -0.0003 0.3833
vn -0.6785 -0.6784 0.2817
vn -0.9236 -0.0003 0.3833
# 55 vertex normals

vt 0.7132 0.0072 0.0000
vt 0.7089 0.3732 0.0000
vt 0.7132 0.3732 0.0000
vt 0.7089 0.0072 0.0000
vt 0.8744 0.0072 0.0000
vt 0.8744 0.3732 0.0000
vt 0.7124 0.0127 0.0000
vt 0.7124 0.3756 0.0000
vt 0.7081 0.0127 0.0000
vt 0.8753 0.3756 0.0000
vt 0.8753 0.0127 0.0000
vt 0.7081 0.3756 0.0000
vt 0.3775 0.3750 0.0000
vt 0.6223 0.2546 0.0000
vt 0.6213 0.2533 0.0000
vt 0.6224 0.3751 0.0000
vt 0.3785 0.2531 0.0000
vt 0.3775 0.2544 0.0000
vt 0.6677 0.9393 0.0000
vt 0.2340 0.3092 0.0000
vt 0.6696 0.9360 0.0000
vt 0.2322 0.3126 0.0000
vt 0.2322 0.9360 0.0000
vt 0.2340 0.9393 0.0000
vt 0.6677 0.3092 0.0000
vt 0.6696 0.3126 0.0000
vt 0.6218 0.2571 0.0000
vt 0.6218 0.2539 0.0000
vt 0.2990 0.5846 0.0000
vt 0.6635 0.7548 0.0000
vt 0.6635 0.9250 0.0000
vt 0.6635 0.5846 0.0000
vt 0.2990 0.9250 0.0000
vt 0.2990 0.7548 0.0000
vt 0.3750 0.9969 0.0000
vt 0.3750 0.7531 0.0000
vt 0.3775 0.7500 0.0000
vt 0.6225 0.7500 0.0000
vt 0.3775 1.0000 0.0000
vt 0.6250 0.7531 0.0000
vt 0.6225 1.0000 0.0000
vt 0.6250 0.9969 0.0000
vt 0.4751 0.9126 0.0000
vt 0.5103 0.9126 0.0000
vt 0.5103 0.9175 0.0000
vt 0.6847 0.9872 0.0000
vt 0.0007 0.0186 0.0000
vt 0.6847 0.0186 0.0000
vt 0.0007 0.9872 0.0000
vt 0.7935 0.9889 0.0000
vt 0.1967 0.3741 0.0000
vt 0.7935 0.3741 0.0000
vt 0.1967 0.9889 0.0000
vt 0.4810 0.0000 0.0000
vt 0.5079 0.9799 0.0000
vt 0.5079 0.0000 0.0000
vt 0.4810 0.9799 0.0000
vt 0.5103 0.0825 0.0000
vt 0.4751 0.9008 0.0000
vt 0.4751 0.0825 0.0000
vt 0.5103 0.9008 0.0000
vt 0.5131 0.9799 0.0000
vt 0.4946 0.0000 0.0000
vt 0.4946 0.9799 0.0000
vt 0.5131 0.0000 0.0000
vt 0.6250 0.5036 0.0000
vt 0.6225 0.5036 0.0000
vt 0.6250 0.7500 0.0000
vt 0.5079 0.9941 0.0000
vt 0.5190 0.9941 0.0000
vt 0.4869 0.9941 0.0000
vt 0.4946 0.9941 0.0000
vt 0.5249 0.9126 0.0000
vt 0.6250 0.4969 0.0000
vt 0.6215 0.4969 0.0000
vt 0.6225 0.4956 0.0000
vt 0.6225 0.5000 0.0000
vt 0.6635 0.8399 0.0000
vt 0.2990 0.6697 0.0000
vt 0.6215 0.5000 0.0000
vt 0.4946 0.3058 0.0000
vt 0.4869 0.3058 0.0000
vt 0.3785 0.2500 0.0000
vt 0.6294 0.2500 0.0000
vt 0.8709 0.3750 0.0000
vt 0.8626 0.0127 0.0000
vt 0.8709 0.0127 0.0000
vt 0.8626 0.3750 0.0000
vt 0.7124 0.1942 0.0000
vt 0.7812 0.3741 0.0000
vt 0.7812 0.9889 0.0000
vt 0.3780 0.2538 0.0000
vt 0.6223 0.2578 0.0000
vt 0.7834 0.3741 0.0000
vt 0.7834 0.9889 0.0000
vt 0.0000 0.0000 0.0000
vt 0.4965 1.0000 0.0000
vt 0.0000 0.7262 0.0000
vt 0.4965 0.0000 0.0000
vt 0.8702 0.1902 0.0000
vt 0.8702 0.0072 0.0000
vt 0.7132 0.1902 0.0000
vt 0.4810 0.9941 0.0000
vt 0.5079 1.0000 0.0000
vt 1.0000 0.0000 0.0000
vt 0.5394 0.4985 0.0000
vt 0.4946 1.0000 0.0000
vt 0.9238 0.0000 0.0000
vt 0.9237 1.0000 0.0000
vt 0.5131 0.9941 0.0000
# 110 texture coords

o vsn_mesh_0_giftBox_new
g vsn_mesh_0_giftBox_new
usemtl giftBox_m_mat
s off
f 1/1/1 2/2/1 3/3/1 
f 1/1/1 4/4/1 2/2/1 
f 1/1/2 3/3/2 5/5/2 
f 3/3/2 6/6/2 5/5/2 
f 7/7/3 8/8/3 9/9/3 
f 7/7/4 10/10/4 8/8/4 
f 7/7/4 11/11/4 10/10/4 
f 9/9/3 8/8/3 12/12/3 
f 13/13/5 14/14/5 15/15/5 
f 13/13/2 16/16/2 14/14/2 
f 13/13/2 15/15/2 17/17/2 
f 13/13/6 17/17/6 18/18/6 
f 19/19/7 20/20/7 21/21/7 
f 19/19/7 22/22/7 20/20/7 
f 19/19/8 23/23/8 22/22/8 
f 19/19/7 24/24/7 23/23/7 
f 21/21/8 20/20/8 25/25/8 
f 21/21/8 25/25/8 26/26/8 
f 27/13/9 28/27/9 29/28/9 
f 27/13/9 30/16/9 28/27/9 
f 27/13/9 29/28/9 31/17/9 
f 27/13/10 31/17/10 32/18/10 
f 33/29/11 34/30/11 35/31/11 
f 33/29/12 36/32/12 34/30/12 
f 33/29/12 35/31/12 37/33/12 
f 33/29/12 37/33/12 38/34/12 
f 39/13/13 40/14/13 41/15/13 
f 39/13/4 42/16/4 40/14/4 
f 39/13/14 41/15/14 43/17/14 
f 39/13/15 43/17/15 44/18/15 
f 45/35/16 46/36/16 47/37/16 
f 45/35/16 47/37/16 48/38/16 
f 45/35/16 48/38/16 49/39/16 
f 48/38/16 50/40/16 49/39/16 
f 50/40/16 51/41/16 49/39/16 
f 50/40/16 52/42/16 51/41/16 
f 7/43/17 15/44/17 14/45/17 
f 12/46/4 51/47/4 9/48/4 
f 12/46/4 49/49/4 51/47/4 
f 2/48/2 48/49/2 47/47/2 
f 2/48/2 4/46/2 48/49/2 
f 53/50/12 50/51/12 54/52/12 
f 53/50/12 52/53/12 50/51/12 
f 55/50/9 45/51/9 56/52/9 
f 55/50/9 46/53/9 45/51/9 
f 49/54/18 56/55/18 45/56/18 
f 49/54/18 12/57/18 56/55/18 
f 52/58/19 9/59/19 51/60/19 
f 52/58/19 53/61/19 9/59/19 
f 2/62/20 46/63/20 55/64/20 
f 2/62/20 47/65/20 46/63/20 
f 54/66/21 48/38/21 4/67/21 
f 54/66/21 50/68/21 48/38/21 
f 56/55/22 17/69/22 35/70/22 
f 56/55/23 12/57/23 17/69/23 
f 37/71/24 2/62/24 55/64/24 
f 37/71/25 41/72/25 2/62/25 
f 9/59/26 31/73/26 15/44/26 
f 9/59/27 53/61/27 31/73/27 
f 54/74/28 43/75/28 29/76/28 
f 54/74/29 4/77/29 43/75/29 
f 29/78/9 26/79/9 31/32/9 
f 29/78/9 21/33/9 26/79/9 
f 43/80/30 21/76/30 29/76/30 
f 43/80/31 19/80/31 21/76/31 
f 41/78/4 19/79/4 43/32/4 
f 41/78/4 24/33/4 19/79/4 
f 37/71/32 24/81/32 41/72/32 
f 37/71/33 23/82/33 24/81/33 
f 35/78/12 23/79/12 37/32/12 
f 35/78/12 22/33/12 23/79/12 
f 17/83/34 22/18/34 35/18/34 
f 17/83/34 20/83/34 22/18/34 
f 15/78/2 20/79/2 17/32/2 
f 15/78/2 25/33/2 20/79/2 
f 31/84/35 25/15/35 15/15/35 
f 31/84/35 26/84/35 25/15/35 
f 13/85/36 11/86/36 16/87/36 
f 13/85/36 10/88/36 11/86/36 
f 18/89/9 10/11/9 13/10/9 
f 18/89/9 8/7/9 10/11/9 
f 11/10/12 14/7/12 16/11/12 
f 11/10/12 7/89/12 14/7/12 
f 57/50/37 54/90/37 58/52/37 
f 57/50/37 53/91/37 54/90/37 
f 59/31/12 58/29/12 60/32/12 
f 59/31/12 57/33/12 58/29/12 
f 27/13/8 60/16/8 30/16/8 
f 27/13/8 59/13/8 60/16/8 
f 32/18/4 59/13/4 27/13/4 
f 32/18/4 57/92/4 59/13/4 
f 28/93/2 60/16/2 58/28/2 
f 28/93/2 30/16/2 60/16/2 
f 61/50/38 56/94/38 62/52/38 
f 61/50/38 55/95/38 56/94/38 
f 63/13/9 62/28/9 64/16/9 
f 63/13/9 61/17/9 62/28/9 
f 33/13/8 64/16/8 36/16/8 
f 33/13/8 63/13/8 64/16/8 
f 34/78/4 64/79/4 62/32/4 
f 34/78/4 36/33/4 64/79/4 
f 38/33/2 63/32/2 33/78/2 
f 38/33/2 61/79/2 63/32/2 
f 1/96/39 44/97/39 43/98/39 
f 1/96/40 1/99/40 44/97/40 
f 39/5/41 6/100/41 42/6/41 
f 39/5/41 5/101/41 6/100/41 
f 44/1/12 5/6/12 39/5/12 
f 44/1/12 1/102/12 5/6/12 
f 6/5/9 40/102/9 42/6/9 
f 6/5/9 3/1/9 40/102/9 
f 8/103/42 18/104/42 17/69/42 
f 12/57/43 8/103/43 17/69/43 
f 9/59/44 15/44/44 7/43/44 
f 29/14/45 28/93/45 58/28/45 
f 57/44/46 32/45/46 31/73/46 
f 53/61/47 57/44/47 31/73/47 
f 54/96/48 29/105/48 58/106/48 
f 61/72/49 38/107/49 37/71/49 
f 55/64/50 61/72/50 37/71/50 
f 56/55/51 35/70/51 62/69/51 
f 62/69/52 35/70/52 34/104/52 
f 4/96/53 1/108/53 43/109/53 
f 41/72/54 40/107/54 3/110/54 
f 2/62/55 41/72/55 3/110/55 
# 0 polygons - 125 triangles

